<svg width="1882" height="872" viewBox="0 0 1882 872" fill="none" xmlns="http://www.w3.org/2000/svg">
<path fill-rule="evenodd" clip-rule="evenodd" d="M426.603 648.223L1549.36 0L1649.36 173.205L526.603 821.428C478.773 849.042 417.614 832.655 390 784.826C362.386 736.996 378.773 675.837 426.603 648.223Z" fill="#252525"/>
<path fill-rule="evenodd" clip-rule="evenodd" d="M422.603 303.817L908.867 23.0722L1008.87 196.277L522.603 477.022C474.773 504.636 413.614 488.249 386 440.419C358.386 392.59 374.773 331.431 422.603 303.817Z" fill="#252525"/>
<circle cx="136.603" cy="584.347" r="100" transform="rotate(-30 136.603 584.347)" fill="#252525"/>
<path fill-rule="evenodd" clip-rule="evenodd" d="M733.603 282.817L1208.63 8.55734L1308.63 181.762L833.603 456.022C785.773 483.636 724.614 467.249 697 419.419C669.386 371.59 685.773 310.431 733.603 282.817Z" fill="#252525"/>
<path fill-rule="evenodd" clip-rule="evenodd" d="M1247.6 635.223L1781.43 327.02L1881.43 500.225L1347.6 808.428C1299.77 836.042 1238.61 819.655 1211 771.826C1183.39 723.996 1199.77 662.837 1247.6 635.223Z" fill="#252525"/>
<path fill-rule="evenodd" clip-rule="evenodd" d="M1069.6 507.223L1738.12 121.256L1838.12 294.461L1169.6 680.428C1121.77 708.042 1060.61 691.655 1033 643.826C1005.39 595.996 1021.77 534.837 1069.6 507.223Z" fill="#252525"/>
<path fill-rule="evenodd" clip-rule="evenodd" d="M1418.77 536.428L1050.88 748.829L950.88 575.624L1318.77 363.223C1366.6 335.609 1427.76 351.996 1455.37 399.826C1482.99 447.655 1466.6 508.814 1418.77 536.428Z" fill="#1E1E1E"/>
<path fill-rule="evenodd" clip-rule="evenodd" d="M807.891 427.857L624 534.026L574 447.424L757.945 341.223C781.859 327.416 812.439 335.61 826.246 359.524C840.053 383.439 831.859 414.019 807.945 427.826C807.927 427.836 807.909 427.846 807.891 427.857Z" fill="#1E1E1E"/>
</svg>
